# xmcd
#
# Track frame offsets: 
#        150
#        23627
#        55579
#        65106
#        76358
#        98035
#        120462
#        174089
#        193441
#        205593
#        220895
#        248647
#        260719
#        278951
#        312703
#
# Disc length: 4395 seconds
#
# Revision: 0
# Processed by: cddbd v1.5PL3 Copyright (c) Steve Scherf et al.
# Submitted via: ExactAudioCopy v0.95a3
#
DISCID=d811290f
DTITLE=Livin' Blues - Wang Dang Doodle and Bamboozle
DYEAR=1970
DGENRE=Blues
TTITLE0=Wang Dang Doodle
TTITLE1=I Came Home At Night
TTITLE2=Whiskey And Gin
TTITLE3=This Is The Hour
TTITLE4=When The Sun Goes Down
TTITLE5=Go-Go-Train
TTITLE6=Spoonful
TTITLE7=L.B.Boogi
TTITLE8=Sunrise
TTITLE9=Keep On
TTITLE10=Hitch-Hikin'
TTITLE11=Babmoozle Song
TTITLE12=Overture
TTITLE13=Balck Night
TTITLE14=Big City Man
EXTD=1970=1-7\n1971=8-15\n
EXTT0=
EXTT1=
EXTT2=
EXTT3=
EXTT4=
EXTT5=
EXTT6=
EXTT7=
EXTT8=
EXTT9=
EXTT10=
EXTT11=
EXTT12=
EXTT13=
EXTT14=
PLAYORDER=
